<svg id="Layer_1" data-name="Layer 1" xmlns="http://www.w3.org/2000/svg" width="819.3" height="3.24" viewBox="0 0 819.3 3.24"><defs><style>.cls-1{fill:#cb766f;}</style></defs><title>navigation_bar</title><path class="cls-1" d="M37.49,627.67c0.43-.09.19-0.28-1-0.24l-0.84.33Z" transform="translate(781.61 -625.38)"/><path class="cls-1" d="M29.5,627.05c-1.4.16-3,.44-2.1,0.75,1.38-.32,1.72-0.19,3.21-0.56,1.19,0,2.07.11,1.87,0.23a18.59,18.59,0,0,0,2.49-.14,21.73,21.73,0,0,0-5.55-.05C29,627.2,29.4,627.11,29.5,627.05Z" transform="translate(781.61 -625.38)"/><path class="cls-1" d="M-86.64,626.54l0.75,0C-86.1,626.55-86.36,626.54-86.64,626.54Z" transform="translate(781.61 -625.38)"/><path class="cls-1" d="M-158.61,626.35a2.49,2.49,0,0,0,.8-0.07A2.32,2.32,0,0,0-158.61,626.35Z" transform="translate(781.61 -625.38)"/><path class="cls-1" d="M-170.89,626l0.72,0A3.33,3.33,0,0,0-170.89,626Z" transform="translate(781.61 -625.38)"/><path class="cls-1" d="M-86.64,626.54l-1.92-.1A7.25,7.25,0,0,0-86.64,626.54Z" transform="translate(781.61 -625.38)"/><path class="cls-1" d="M13.48,627.85c0.4,0,.74,0,1-0.09l-1,0Z" transform="translate(781.61 -625.38)"/><path class="cls-1" d="M-54.92,626.27h0.58a4.58,4.58,0,0,0,.49-0.13Z" transform="translate(781.61 -625.38)"/><path class="cls-1" d="M-30.58,626.22a1.39,1.39,0,0,0-1,.39,4.09,4.09,0,0,1,1.2-.19A0.31,0.31,0,0,0-30.58,626.22Z" transform="translate(781.61 -625.38)"/><path class="cls-1" d="M8,626.71l0.69,0Z" transform="translate(781.61 -625.38)"/><path class="cls-1" d="M-72.35,626.21a0.5,0.5,0,0,0-.22-0.1A0.3,0.3,0,0,0-72.35,626.21Z" transform="translate(781.61 -625.38)"/><path class="cls-1" d="M-753.28,628.32s0,0,0,0S-753.47,628.32-753.28,628.32Z" transform="translate(781.61 -625.38)"/><path class="cls-1" d="M-781.5,626.93l0.39,0a0.3,0.3,0,0,0,.08-0.16Z" transform="translate(781.61 -625.38)"/><path class="cls-1" d="M-193.38,625.63h0.1C-192.69,625.6-193,625.61-193.38,625.63Z" transform="translate(781.61 -625.38)"/><path class="cls-1" d="M-399.8,625.84c2.34,0.25-3.81.32-.29,0.6C-400.41,626.33-396.88,626-399.8,625.84Z" transform="translate(781.61 -625.38)"/><path class="cls-1" d="M12.85,627.81h-1C12.31,627.83,12.62,627.83,12.85,627.81Z" transform="translate(781.61 -625.38)"/><path class="cls-1" d="M-400.08,626.44h0l0.36,0Z" transform="translate(781.61 -625.38)"/><path class="cls-1" d="M-245.19,625.8a2.53,2.53,0,0,0,.53.12A1.33,1.33,0,0,0-245.19,625.8Z" transform="translate(781.61 -625.38)"/><path class="cls-1" d="M-206.59,626.2l-1,0C-207.17,626.19-206.86,626.2-206.59,626.2Z" transform="translate(781.61 -625.38)"/><path class="cls-1" d="M-265.23,626.2a10.46,10.46,0,0,0-1.4,0l0.22,0A5.24,5.24,0,0,1-265.23,626.2Z" transform="translate(781.61 -625.38)"/><path class="cls-1" d="M-286.08,626.2l0.38,0.06,0.66,0Z" transform="translate(781.61 -625.38)"/><path class="cls-1" d="M-689.89,628.18a4.84,4.84,0,0,1-1-.25C-690.53,628.13-693.59,628.2-689.89,628.18Z" transform="translate(781.61 -625.38)"/><path class="cls-1" d="M13.47,627.69a1.39,1.39,0,0,1-.62.12l0.69,0C13.61,627.76,13.62,627.72,13.47,627.69Z" transform="translate(781.61 -625.38)"/><path class="cls-1" d="M-266.07,628.41l-3.31,0C-268.46,628.4-267.26,628.41-266.07,628.41Z" transform="translate(781.61 -625.38)"/><path class="cls-1" d="M-540.25,628.14l-0.76,0A4.51,4.51,0,0,0-540.25,628.14Z" transform="translate(781.61 -625.38)"/><path class="cls-1" d="M-279.22,628.41a17.52,17.52,0,0,0-1.87-.19,2.73,2.73,0,0,0-.38.07Z" transform="translate(781.61 -625.38)"/><path class="cls-1" d="M-690.86,627.93h0Z" transform="translate(781.61 -625.38)"/><path class="cls-1" d="M-712.69,628.6c3.16,0,1.48-.36,2.15-0.57,3.77-.1,1.74.27,3,0.46,2.35-.1,4.16-0.44,5.91-0.42,0.13,0.06.47,0.08,0.07,0.16,2.49-.29,7.39,0,10.28-0.38a1.38,1.38,0,0,1,.38.09c-0.47-.19-0.54-0.37-0.45-0.51a12.78,12.78,0,0,1,3.16,0,4.19,4.19,0,0,0-1.35.17l1.48-.1c1.34,0.35-2,.12-2,0.38,2.89-.11,6.26-0.4,8.48-0.3,0.46,0.34-5.18.11-2.23,0.42l-3.43-.13c2.62,0.54-2.08,0,.32.54,4.51,0.1,5-.17,9.55-0.07,1-.19-0.33-0.28.68-0.47,6.4-.34,5,0.85,9.74.4a12.33,12.33,0,0,1,5-.43l-1.14.38c4.37,0,2.49-.55,7.07-0.29-0.81.15-3.43,0.13-2.77,0.17,3,0.3,2.1-.22,4.38-0.22l0.47,0.34c4.65-.05,9.78-0.3,14.93-0.36-0.29.1-1.17,0.21,0,.31,6.5-.17,13.87,0,20.14.24l2.39-.29c0.56,0,1,.13.43,0.19,2.44,0.11.13-.19,1.3-0.3,1.39,0,1.84.17,1,.26a166.69,166.69,0,0,1,16.82-.22l-0.89.09c3.54,0.12,4-.6,7.27-0.33l-0.63.05c7.68,0.13,16.16-.14,22,0.3,1.11-.42,7.6.19,8.09-0.4,4.38,0.29,3.13.4,9.3,0.59,1.65,0,2.46-.37,4.5-0.43l0,0.31,2.77-.32,1.47,0.37,1.91-.08a3.21,3.21,0,0,1-1.5-.23,37.21,37.21,0,0,1,7.35.37l7.06-.26a12.78,12.78,0,0,1-2.28.25c3.77-.31.69,0.32,4.14,0-0.46-.07.25-0.18,0.33-0.25,1.72,0.19,5.64.19,8.54,0.11l-0.56.21c5.24,0.05,11-.1,16.93-0.1-2.11-.1-1.62-0.47.1-0.5l0.69,0.33c1.11-.2-1.8-0.12.48-0.37,2.2,0,1.48.37,0.22,0.48l2.67-.11a1.4,1.4,0,0,1-.63.27c1.1-.2,4.61.33,6.19,0l0.15,0.1c5.88,0,8.54-.11,13.33-0.13,0.09-.28,2-0.22,3.39-0.45,3.52,0.09,7.42.31,11.67,0.29,3-.14.87-0.24,2.21-0.41,0.22,0.26,4.45.23,2.26,0.42,5.09,0,6.5-.05,12.94-0.26-0.7-.1-1.48-0.15-1.08-0.24a6.2,6.2,0,0,1,2.49.23l-0.31,0c7.22-.38,16.67.75,22.43,0.21l-0.32,0,6-.28c2.74,0-1.65.19,0.38,0.35,6.44-.43,10.17.06,15.47-0.22,4.1,0.76,14.56-.05,20.09.43l-0.32-.18a11,11,0,0,1,2.79.14c-0.15-.14-1.55-0.16-0.66-0.26,12.12-.21,25,0.26,37.45.42,4.55,0,2.58-.92,8.31-0.5l-1.63.33c9.17-.4,18.76,0,27.74-0.32a5.68,5.68,0,0,1-1.43.17,33,33,0,0,0,7-.18c1.4,0,.32.18,1.19,0.28,1.9,0.14,4.78-.31,5.79-0.07a2.8,2.8,0,0,1-.88.1c1.24-.12,5.78,0,4.59-0.25,3.37,0.13,6.45-.12,9.14,0,1.75-.31,5.77.15,6.33-0.29-0.24.45,5.91,0.36,8,.15-0.71.14,1.85,0.14,1,.33,2.43,0,4.66-.09,4.24-0.32,4.48,0.54,9-.44,11.53.26,7.22-.24,13.91-0.41,20.41-0.51-0.23.45-7.18,0-6.9,0.52,6.17-.19,9.72-0.57,15.84-0.46,1.58,0.06-.9.2-1.43,0.27,6.16-.19,11.91,0,17.39-0.2a6.29,6.29,0,0,1-1.17.12c1.08,0,2.51.07,2.39-.14l-1.05.06c-1.72-.3,4.29-0.62,4.48-0.78-1.83.59,5.41,0.15,2.5,0.89,0.71,0,1.6-.14,1.44-0.27,1.05,0,1.39.12,0.32,0.28,3.87-.11,2.49-0.33,6-0.33a6.18,6.18,0,0,1-1.08.25,42,42,0,0,1,6.52-.3c-0.18.06,0.17,0.14-.72,0.14,5.09,0,8.67-.52,14.25-0.33-1.65.43,1.9,0.14,2.19,0.52l3-.11-1.2-.18c2.63,0,5-.27,7.21-0.14l-2,.15,4.93-.07-2.79-.14c2.66-.19-0.29-0.47,3.21-0.37-0.71,0,2.63,0,4,.22h0a29.85,29.85,0,0,1,4.58-.15c0.51,0.12-.41.41-0.08,0.49,1.28-.31,6.16-0.09,7.78-0.42-0.54.08-.57,0.27-0.39,0.31l1.08-.25c1.22,0.08,1.4.12,1.2,0.28,3.66,0-1.16-.47,3.18-0.27-0.34,0-.18.06-0.89,0.1,4.37,0.11,8.44-.16,12.45,0,1.18,0.38-3.51.09-2.15,0.41,5.78-.07,12-0.45,17.58-0.36l-1,0c0.78-.53,4.17.26,7,0-0.69,0-.91.29-0.72,0.24,3.83,0.09,7.84-.13,13.65-0.3l-0.72.14c2.26,0.12,5.95.07,8.39,0.13,0.72-.14,2.12-0.11,1.27-0.31,7.52,0.78,14.35-.42,21,0.23-0.8,0-1.9.12-1.27,0.12l5.69-.13a7,7,0,0,0-1.94-.32,25.27,25.27,0,0,1,3.73-.24c-2.56.15,0,.37,1.13,0.5-0.19-.07.19-0.15,0.1-0.22,3,0.41.5-.46,4.55-0.19l-0.21.12c1.52-.06,2.92-0.22,4.55-0.19,0.68,0.27-1.62.12-1.72,0.34,2.3,0,4.54-.51,6.62-0.24-1,.07-2.38.08-3.36,0.15a26.23,26.23,0,0,0,4.21.28H-37l3.89,0.14-1-.09c2.88-.7,5.86-0.13,9.73-0.58-3.77.43-.62,0.25-0.91,0.55,1,0.08,2.49.18,2.07,0.26,1.83-.24,3.06.19,5.64-0.16,0.12,0.1,2,0,1.55.25,2.38-.08-0.56-0.17-0.36-0.29,3.67-.33,8.63.4,13.91-0.05,4.55-.19,5.4-0.52,9.62-0.68,1.43,0.16-1.17.36-1.17,0.36a50.22,50.22,0,0,0,6.2,0c-0.44.09,0,.16,0.67,0.27,1.74,0,1.16-.36,3.46-0.21a10.46,10.46,0,0,1-1.74.39c2.05-.09,4.08-0.27,6.2-0.36,0.56,0.17-1.28.26-2,.37a53.1,53.1,0,0,0,6.92-.42l-1.53-.1c0.87,0,.45.23-0.19,0.28a5.87,5.87,0,0,1-3.06-.19l1.51-.06c-1.55-.57-6.07.09-9.11,0.06l1.27-.42-3.12.35c-0.66-.11-1.12-0.34.38-0.4-2.18-.21-1.93.15-3.81-0.08-0.21,0-.11-0.06.08-0.07l-2.13.12c0.42-.09-0.35-0.29,1-0.23-3.83-.24-6.17.31-7.61,0l0.32,0c-5.31.14-.51,0.31-4.5,0.66l-2.68-.75-0.52.31c-0.55,0-1.63,0-1.43-.16-2,.21.35,0.13-0.84,0.33-2.64-.28-7.27.13-7.86-0.36-0.95.23,2.52,0.18-.29,0.34-0.8-.52-3.25.09-5.66-0.15,0.74-.27,3-0.13.61-0.37-1.45.46-4.69-.1-6.72,0-0.1.36-4.42,0.15-7.82,0.27,0.22-.12-6.41-0.2-9.58-0.33l0.09-.06c-0.61.37-3.88,0.3-6.27,0.37,0.09-.22.52-0.31,1.81-0.4h-2.24a14.88,14.88,0,0,1-2.68.22l0.56-.27c-3,0-6,.32-9.83.14-0.22.26,3,.71-1,0.88-0.15-.14-0.3-0.38.76-0.43a14.09,14.09,0,0,1-1.94.06l1.62-.23c-1.75-.1-0.91.19-2.31,0.17,0-.2-1-0.14-0.83-0.3a17.34,17.34,0,0,0,1.75,0,30,30,0,0,1-4.11-.3c0.14,0.11,0,.27-1.15.29-3,0-1-.24-2.76-0.34-0.72.14-2.62,0-2.67,0.29a3.69,3.69,0,0,1-1.37-.22c-1.54.13-7.2,0-5.47,0.35l0.4,0h-0.25c-5.05.29-10.5-.17-15.52,0v-0.1c-3,.11-6.66.07-8.8,0.28-0.89,0-2.09-.18-1.71-0.3a46.6,46.6,0,0,1-5.85,0c2.3-.17-0.79-0.15,2.36-0.13a44,44,0,0,0-6.84,0c1.09-.25-2.24-0.32-3.65-0.24l2.08,0.18c-1.59,0-3,0-4.39,0l0.76-.33c-6.09-.4-11,0.69-15.61,0-1.61.23,3.3,0.16,1.87,0.44-2.8,0-5.72-.52-6.59-0.52-3.83-.18-3.58.49-7.59,0.36,0.51,0.12,1,.44-2,0.55-2.8,0-3.44-.5-1.67-0.59a2.28,2.28,0,0,1,1,.07c0.91,0,2.09-.09,1-0.22l-0.36.12c-1.39-.12-5.24-0.11-4.34-0.3-2.12.11-.91,0.19,0.66,0.26-3.59-.17-5.61,0-9.31-0.12,0.59,0.07,1.13.2,0.54,0.2-5.42-.15-2.39.23-6.06,0.28-2.09-.18.75-0.43-3-0.28-2.26-.12-0.48-0.31.42-0.41a72.83,72.83,0,0,1-8.22-.19l1.78-.1c-1.06.06-1.93,0.06-2.82,0.05l1,0.24a7.47,7.47,0,0,1-1.91-.14c-1.07.16,0.82,0.39-1.31,0.61-1.39-.12-4.23.13-4.71-0.19,4.37,0.11-.48-0.32,3.22-0.37-0.71,0-1.58,0-2.63,0-0.16,0,.15-0.07.43-0.08-4.18-.28-1.92.36-6.26,0.35,0.55-.18-1-0.34-1.71-0.3,1.75,0,.84.3-0.77,0.43a43,43,0,0,0-4.48.09l1.66,0.06a24.12,24.12,0,0,1-3.89.21c-0.17-.14,1.76-0.1,1.07-0.16-2.15.31-4.86-.32-7.86-0.11-1.39-.12-0.13-0.33-1.35-0.41-3.36.23-3.64-.24-7.17-0.05,1,0.24,1.2.18-1.29,0.41l5.81-.17-3.73.35c1.75,0,3.7-.15,4.75-0.11-1.78.19-1.59,0.14-.75,0.33-2.4-.36-4.76.21-7.53,0l0.08-.59c-4.17-.26-7.41.3-12.82,0.15l1.74,0.1c-0.73.23-3.34,0-5.1,0.13,0.16-.2-0.93-0.27-1.68-0.39,0.09,0.15-4,0-4.45.38l-2.42-.26c-4.37-.11-5,0.56-9.19.5,1.27-.21-0.64-0.35,2.17-0.51a10.91,10.91,0,0,0-2.69.1c-0.82-.12-3.89.27-5.18,0.08a7.91,7.91,0,0,1-2.36.28c-0.17,0,0-.1,0-0.1s-2.47.13-1.09,0.35c-4.32-.62-12.08,0-15.84-0.48-3.06.07-6.75,0.13-9.53,0.14a0.63,0.63,0,0,1,.53-0.08c-3.83-.18-2.36.57-6.72,0.36-2.23-.32,2.32-0.17.93-0.29-0.6-.65-5.27.09-8.2-0.29l0.71,0c-2.24-.22-5.48.25-9.14,0.2,0,0,.18-0.06,0-0.1-2.51.33-7.25,0.44-10.78,0.53,1.1-.25,1.6-0.13.93-0.39-1.58,0,.46.41-2.69,0.49-1-.14-3.3-0.26-3.61-0.54h3c-1.53-.36-3.85,0-5.42,0l0.2-.16c-4.56.05-4.63,0.44-9.53,0.42l0.51,0.12c-2.68.39-2.25-.22-4.92,0.07l-0.81-.39c-1.77.1-6.19,0.38-9.37,0.46,1.8-.29,5.51-0.44,7.8-0.62-1.75,0-6,0-6.87.22a17.84,17.84,0,0,1,2.29-.07,61,61,0,0,1-8.47.46c0.62-.77-9.1-0.19-11.64-0.79-6.18.28-12.26-.12-19.46-0.08,2.55,0.6-2.1,0-1.66.63a18.6,18.6,0,0,1-2.47,0l-5.08-.37c-1.2-.18,1.59-0.13,1.44-0.27-3.67,0-1.54-.26-4-0.42,0.5,0.22-1.28.31-3.37,0.23l2.95,0.28c-5.13.33-4.43-.51-9.61-0.19l1.64-.19c-2.65.11-9.79,0-12.39,0.49-0.47-.07-1.09-0.24.08-0.28-6.34-.07-14.12.52-19,0.22l0.48-.15a20.41,20.41,0,0,1-3.54.13c0.08-.06.48-0.15-0.07-0.16a41.77,41.77,0,0,1-4.71.17l1.34-.17c-6.19-.2-9.49.41-14.68,0.51,0-.44-4.85-0.58-7.28-0.65l0.08-.06c-7.2-.05-12.24.36-18.91,0.54-4.14-.48-14-0.2-20.68-0.47,1,0.08-.17.34-1.35,0.39-1.56-.09-4.32.31-4.07-0.1h0.56c-1.18-.4-4.39-0.29-6.89-0.3l-0.41.53c-6.55-.77-17.17.28-20.75-0.41-1.58.13-3.54,0.13-5.11,0.26l0.08-.28c-4.38-.07-6.57-0.11-12,0l1.1-.2c-3.06,0-3.86.82-6.68,0.83l-0.85-.42c-5.33,0-10.73-.36-16,0a1.78,1.78,0,0,1,1.11-.2c-2.51,0-9.71-.29-8.8.29-0.06-.38-5.5,0-8.38.13l0.45-.28a33.43,33.43,0,0,1-5.9.55c-0.8,0-.7-0.22.36-0.15-2.68-.15-2.09.26-5.34,0.12l1.21-.18a16.71,16.71,0,0,0-4.06.28,23.57,23.57,0,0,1-5.64-.32,11.8,11.8,0,0,1-3.51.29c-0.22-.1.37-0.15,0.67-0.18-4.61-.19-6.85.32-10,0.05a0.85,0.85,0,0,0-.54-0.17c3.66,0,6.61,0,6.34,0,0-.26-3-0.3-0.6-0.66a85.09,85.09,0,0,1-9.32.49,2.3,2.3,0,0,1-.38-0.09l0.3,0a15.56,15.56,0,0,0-1.82,0c-0.92,0-1.5-.07-2.39-0.08a33.21,33.21,0,0,0-4.87-.12c0.12,0.28-1.81.24,0,.47a4.86,4.86,0,0,1,1.26,0l0.63,0-0.1,0,3.67,0a17.21,17.21,0,0,1-4,.11c-0.76.18-1.59,0.37-2.06,0.45-2-.39-5.91-0.6-6.45-0.85-4.5.16-10.61,0.1-13.44,0.63a4.83,4.83,0,0,1-2-.23c0.74-.05,1.62,0,2-0.12-2.56.14-7.59,0.05-8.2,0.42-3.23-.17,1.81-0.34-2.62-0.28l0.6-.11c-8.72-.59-14.18.94-23.85,0.18a5.16,5.16,0,0,1,1.14.13c-11-.33-22.72.31-33.6-0.22a25.93,25.93,0,0,0-5.32.31l-0.67-.3-3.23.35c-4.58.26-7.92-.74-13.72-0.26l0.75,0.2c-2.08,0-6.59.12-6.24-.11a3.74,3.74,0,0,1-1.5.11l-0.06-.16-5.11.27c-4-.11.62-0.63-5.16-0.66-2.15.06-6.12,0.46-5.31,0.57a6.92,6.92,0,0,1,2.28.26l-2,.08c-0.36.47-1.87,0.94,3,1.27l3.36-.28,1.08,0.23h-2.83a13.3,13.3,0,0,0,3.76-.1,4.61,4.61,0,0,0,1.41.25l3.3-.44c0.4,0.18-1.48.36,0.73,0.46,1.55-.21-1.48-0.41,1.08-0.54a7.53,7.53,0,0,0,3,.2c0.27,0.12-.13.2-0.88,0.25,1.68-.14,4.45-0.06,5.32-0.31,1.68,0.26,5.67-.07,5.51.37a39.23,39.23,0,0,1,4.5-.36c-2.82.53,5.78,0,5,.6,2.09-.47,7.54-0.21,11.24-0.47a4,4,0,0,1-.94.09c2.08,0,2.69.18,4,.27,0.27-.39,3.51-0.48,5.25-0.72,2.55,0.38-1.55.46-.75,0.82-0.13-.32,4.43-0.32,3.56-0.58a9.59,9.59,0,0,1,2.69.44c0.34-.49,1.82-0.08,3.43-0.38,2.82,0.24.73,0.46,3.83,0.31C-709.93,628.42-712.69,628.6-712.69,628.6Zm73.75-.85h0l-1.52,0Zm6.2,0h-2.69c-0.22-.1,0-0.2.64-0.19A10.38,10.38,0,0,0-632.73,627.74Zm-13.11-1.95a4.07,4.07,0,0,1,1.44.07l-1.72,0-0.12,0A1.17,1.17,0,0,1-645.84,625.8Z" transform="translate(781.61 -625.38)"/><path class="cls-1" d="M-647.61,626.17l-0.4,0,0.59,0.06,0.35-.09h-0.53Z" transform="translate(781.61 -625.38)"/><path class="cls-1" d="M-85.76,626.58H-85.9l0.27,0Z" transform="translate(781.61 -625.38)"/><polygon class="cls-1" points="234.46 2.9 234.45 2.83 233.91 2.89 234.46 2.9"/><path class="cls-1" d="M-51.63,627.55a1.88,1.88,0,0,0,.45.07A2.46,2.46,0,0,0-51.63,627.55Z" transform="translate(781.61 -625.38)"/><path class="cls-1" d="M-36.88,627.61l2.09,0.1C-35.7,627.65-36.36,627.63-36.88,627.61Z" transform="translate(781.61 -625.38)"/><path class="cls-1" d="M-25.55,627.75a0.53,0.53,0,0,0,.22-0.12h0Z" transform="translate(781.61 -625.38)"/><path class="cls-1" d="M-205.81,628.08h-0.44C-207.27,628.15-206.57,628.13-205.81,628.08Z" transform="translate(781.61 -625.38)"/><path class="cls-1" d="M-152.16,627.42c-0.57.05-1.13,0.1-1.72,0.13A3.4,3.4,0,0,0-152.16,627.42Z" transform="translate(781.61 -625.38)"/><path class="cls-1" d="M-265.71,628.42h0Z" transform="translate(781.61 -625.38)"/><path class="cls-1" d="M-156.38,627.55a21.78,21.78,0,0,0,2.49,0C-154.67,627.54-155.59,627.51-156.38,627.55Z" transform="translate(781.61 -625.38)"/><path class="cls-1" d="M23.59,627.88h0.55s0,0,.07,0Z" transform="translate(781.61 -625.38)"/><path class="cls-1" d="M24.2,627.84l0.61,0A2.81,2.81,0,0,0,24.2,627.84Z" transform="translate(781.61 -625.38)"/><path class="cls-1" d="M26.09,627.74l-1.28.07A6.07,6.07,0,0,0,26.09,627.74Z" transform="translate(781.61 -625.38)"/><path class="cls-1" d="M8.58,627.75l-0.17.1A0.22,0.22,0,0,0,8.58,627.75Z" transform="translate(781.61 -625.38)"/><path class="cls-1" d="M4,627.78c1.09,0,2.73.22,4.25,0.15l0.14-.08C7.7,628,5.06,627.6,4,627.78Z" transform="translate(781.61 -625.38)"/><path class="cls-1" d="M-15,626.52l3.82,0.08c-0.67-.11-1.55-0.25.19-0.28C-15.82,626-10,626.56-15,626.52Z" transform="translate(781.61 -625.38)"/><path class="cls-1" d="M-26.86,626.36c2.05-.05,0-0.16.08-0.22C-28.08,626.24-28.4,626.26-26.86,626.36Z" transform="translate(781.61 -625.38)"/><path class="cls-1" d="M-112.5,626.36l0.21-.26C-113.88,626.14-112.31,626.2-112.5,626.36Z" transform="translate(781.61 -625.38)"/><polygon class="cls-1" points="652.74 2.3 654.28 2.46 655.01 2.22 652.74 2.3"/><polygon class="cls-1" points="643.07 0.47 643.76 0.44 641.12 0.53 643.07 0.47"/><path class="cls-1" d="M-282.37,625.95l0.48,0.31C-280.83,626.21-280.6,625.85-282.37,625.95Z" transform="translate(781.61 -625.38)"/><path class="cls-1" d="M-344.47,626.27a12.58,12.58,0,0,0-3.5-.1C-346.57,626.19-345.18,626.31-344.47,626.27Z" transform="translate(781.61 -625.38)"/><polygon class="cls-1" points="250.93 0.37 252.18 0.27 249.82 0.36 250.93 0.37"/></svg>