<svg id="Layer_1" data-name="Layer 1" xmlns="http://www.w3.org/2000/svg" width="227.37" height="3.24" viewBox="0 0 227.37 3.24"><defs><style>.cls-1{fill:#cb766f;}</style></defs><title>title_bar</title><path class="cls-1" d="M156,843.26c0.12-.09.05-0.28-0.28-0.24l-0.23.33Z" transform="translate(71.37 -840.98)"/><path class="cls-1" d="M153.73,842.65c-0.39.16-.83,0.44-0.58,0.75a10.39,10.39,0,0,0,.89-0.56c0.33,0,.58.11,0.52,0.23a1.52,1.52,0,0,0,.69-0.14,1.76,1.76,0,0,0-1.54-.05C153.59,842.79,153.7,842.71,153.73,842.65Z" transform="translate(71.37 -840.98)"/><path class="cls-1" d="M121.5,842.13l0.21,0A0.74,0.74,0,0,0,121.5,842.13Z" transform="translate(71.37 -840.98)"/><path class="cls-1" d="M101.53,841.95a0.25,0.25,0,0,0,.22-0.07C101.61,841.9,101.5,841.92,101.53,841.95Z" transform="translate(71.37 -840.98)"/><path class="cls-1" d="M98.12,841.58l0.2,0A0.27,0.27,0,0,0,98.12,841.58Z" transform="translate(71.37 -840.98)"/><path class="cls-1" d="M121.5,842.13L121,842C120.93,842.13,121.24,842.11,121.5,842.13Z" transform="translate(71.37 -840.98)"/><path class="cls-1" d="M149.29,843.45a1,1,0,0,0,.29-0.09l-0.27,0Z" transform="translate(71.37 -840.98)"/><path class="cls-1" d="M130.3,841.86h0.16a0.9,0.9,0,0,0,.13-0.13Z" transform="translate(71.37 -840.98)"/><path class="cls-1" d="M137.06,841.81a0.51,0.51,0,0,0-.26.39,0.49,0.49,0,0,1,.33-0.19A0.36,0.36,0,0,0,137.06,841.81Z" transform="translate(71.37 -840.98)"/><path class="cls-1" d="M147.77,842.31l0.19,0Z" transform="translate(71.37 -840.98)"/><path class="cls-1" d="M125.47,841.8a0.21,0.21,0,0,0-.06-0.1A0.14,0.14,0,0,0,125.47,841.8Z" transform="translate(71.37 -840.98)"/><path class="cls-1" d="M-63.5,843.91a0.22,0.22,0,0,0,0,0S-63.55,843.91-63.5,843.91Z" transform="translate(71.37 -840.98)"/><path class="cls-1" d="M-71.33,842.52l0.11,0a0.75,0.75,0,0,0,0-.16Z" transform="translate(71.37 -840.98)"/><path class="cls-1" d="M91.88,841.22h0C92.07,841.2,92,841.2,91.88,841.22Z" transform="translate(71.37 -840.98)"/><path class="cls-1" d="M34.6,841.43c0.65,0.25-1.06.32-.08,0.6C34.43,841.92,35.4,841.6,34.6,841.43Z" transform="translate(71.37 -840.98)"/><path class="cls-1" d="M149.11,843.41h-0.28A1.19,1.19,0,0,0,149.11,843.41Z" transform="translate(71.37 -840.98)"/><path class="cls-1" d="M34.52,842h0l0.1,0Z" transform="translate(71.37 -840.98)"/><path class="cls-1" d="M77.5,841.39a0.41,0.41,0,0,0,.15.12A0.25,0.25,0,0,0,77.5,841.39Z" transform="translate(71.37 -840.98)"/><path class="cls-1" d="M88.21,841.79l-0.27,0A1.32,1.32,0,0,0,88.21,841.79Z" transform="translate(71.37 -840.98)"/><path class="cls-1" d="M71.94,841.79a0.82,0.82,0,0,0-.39,0l0.06,0A0.42,0.42,0,0,1,71.94,841.79Z" transform="translate(71.37 -840.98)"/><path class="cls-1" d="M66.15,841.79l0.11,0.06,0.18,0Z" transform="translate(71.37 -840.98)"/><path class="cls-1" d="M-45.91,843.78a0.9,0.9,0,0,1-.27-0.25C-46.09,843.73-46.94,843.8-45.91,843.78Z" transform="translate(71.37 -840.98)"/><path class="cls-1" d="M149.29,843.29a0.21,0.21,0,0,1-.17.12l0.19,0A0.08,0.08,0,0,0,149.29,843.29Z" transform="translate(71.37 -840.98)"/><path class="cls-1" d="M71.71,844l-0.92,0C71,844,71.38,844,71.71,844Z" transform="translate(71.37 -840.98)"/><path class="cls-1" d="M-4.38,843.74l-0.21,0A0.37,0.37,0,0,0-4.38,843.74Z" transform="translate(71.37 -840.98)"/><path class="cls-1" d="M68.06,844a1.63,1.63,0,0,0-.52-0.19,0.36,0.36,0,0,0-.11.07Z" transform="translate(71.37 -840.98)"/><path class="cls-1" d="M-46.18,843.52h0Z" transform="translate(71.37 -840.98)"/><path class="cls-1" d="M-52.24,844.19c0.88,0,.41-0.36.6-0.57,1-.1.48,0.27,0.84,0.46a14.13,14.13,0,0,1,1.64-.42c0,0.06.13,0.08,0,.16,0.69-.29,2,0,2.85-0.38a0.24,0.24,0,0,1,.11.09A0.66,0.66,0,0,1-46.3,843a1,1,0,0,1,.88,0,0.45,0.45,0,0,0-.37.17l0.41-.1c0.37,0.35-.56.12-0.56,0.38a10.12,10.12,0,0,1,2.35-.3c0.13,0.34-1.44.11-.62,0.42l-1-.13c0.73,0.54-.58,0,0.09.54,1.25,0.1,1.4-.17,2.65-0.07,0.28-.19-0.09-0.28.19-0.47,1.78-.34,1.4.85,2.7,0.4a1.24,1.24,0,0,1,1.4-.43l-0.32.38c1.21,0,.69-0.55,2-0.29-0.23.15-1,.13-0.77,0.17,0.82,0.3.58-.22,1.21-0.22l0.13,0.34c1.29-.05,2.71-0.3,4.14-0.36-0.08.1-.32,0.21,0,0.31a28,28,0,0,1,5.59.24l0.66-.29c0.15,0,.29.13,0.12,0.19,0.68,0.11,0-.19.36-0.3s0.51,0.17.27,0.26a13,13,0,0,1,4.67-.22l-0.25.09c1,0.12,1.11-.6,2-0.33l-0.17.05c2.13,0.13,4.48-.14,6.11.3,0.31-.42,2.11.19,2.25-0.4a11.26,11.26,0,0,0,2.58.59,11.91,11.91,0,0,0,1.25-.43v0.31l0.77-.32,0.41,0.37,0.53-.08A0.43,0.43,0,0,1-5,843.55a3.13,3.13,0,0,1,2,.37l2-.26a1.24,1.24,0,0,1-.63.25c1-.31.19,0.32,1.15,0-0.13-.07.07-0.18,0.09-0.25A6.7,6.7,0,0,0,2,843.8L1.82,844c1.45,0.05,3.07-.1,4.7-0.1-0.59-.1-0.45-0.47,0-0.5l0.19,0.33c0.31-.2-0.5-0.12.13-0.37,0.61,0,.41.37,0.06,0.48l0.74-.11a0.58,0.58,0,0,1-.18.27c0.3-.2,1.28.33,1.72,0l0,0.1c1.63,0,2.37-.11,3.7-0.13,0-.28.55-0.22,0.94-0.45a26.85,26.85,0,0,0,3.24.29c0.83-.14.24-0.24,0.61-0.41,0.06,0.26,1.24.23,0.63,0.42a30.93,30.93,0,0,0,3.59-.26c-0.19-.1-0.41-0.15-0.3-0.24a0.65,0.65,0,0,1,.69.23l-0.09,0c2-.38,4.63.75,6.22,0.21l-0.09,0,1.66-.28c0.76,0-.46.19,0.11,0.35,1.79-.43,2.82.06,4.29-0.22,1.14,0.76,4-.05,5.58.43l-0.09-.18a0.93,0.93,0,0,1,.77.14c0-.14-0.43-0.16-0.18-0.26a97.14,97.14,0,0,1,10.39.42c1.26,0,.72-0.92,2.31-0.5l-0.45.33c2.55-.4,5.21,0,7.7-0.32a0.59,0.59,0,0,1-.4.17,2.67,2.67,0,0,0,2-.18c0.39,0,.09.18,0.33,0.28,0.53,0.14,1.33-.31,1.61-0.07,0,0-.15.08-0.24,0.1,0.34-.12,1.6,0,1.27-0.25,0.94,0.13,1.79-.12,2.54,0,0.49-.31,1.6.15,1.76-0.29-0.07.45,1.64,0.36,2.23,0.15-0.2.14,0.51,0.14,0.28,0.33,0.67,0,1.29-.09,1.18-0.32,1.24,0.54,2.5-.44,3.2.26,2-.24,3.86-0.41,5.66-0.51-0.07.45-2,0-1.92,0.52a22.37,22.37,0,0,1,4.39-.46c0.44,0.06-.25.2-0.4,0.27,1.71-.19,3.31,0,4.83-0.2a0.61,0.61,0,0,1-.32.12c0.3,0,.7.07,0.66-0.14l-0.29.06c-0.48-.3,1.19-0.62,1.24-0.78-0.51.59,1.5,0.15,0.69,0.89,0.2,0,.44-0.14.4-0.27,0.29,0,.39.12,0.09,0.28a10.12,10.12,0,0,1,1.67-.33,1,1,0,0,1-.3.25,3.44,3.44,0,0,1,1.81-.3c0,0.06,0,.14-0.2.14,1.41,0,2.41-.52,4-0.33-0.46.43,0.53,0.14,0.61,0.52l0.83-.11-0.33-.18a12.39,12.39,0,0,1,2-.14l-0.54.15,1.37-.07-0.77-.14c0.74-.19-0.08-0.47.89-0.37a5.67,5.67,0,0,1,1.11.22h0a2.39,2.39,0,0,1,1.27-.15,1.6,1.6,0,0,1,0,.49c0.36-.31,1.71-0.09,2.16-0.42a0.23,0.23,0,0,0-.11.31l0.3-.25c0.34,0.08.39,0.12,0.33,0.28,1,0-.32-0.47.88-0.27a1,1,0,0,1-.25.1c1.21,0.11,2.34-.16,3.45,0,0.33,0.38-1,.09-0.6.41,1.61-.07,3.32-0.45,4.88-0.36l-0.29,0c0.22-.53,1.16.26,1.94,0-0.19,0-.25.29-0.2,0.24a22.85,22.85,0,0,0,3.79-.3l-0.2.14c0.63,0.12,1.65.07,2.33,0.13,0.2-.14.59-0.11,0.35-0.31,2.09,0.78,4-.42,5.84.23-0.22,0-.53.12-0.35,0.12l1.58-.13a0.87,0.87,0,0,0-.54-0.32,2.14,2.14,0,0,1,1-.24c-0.71.15,0,.37,0.31,0.5a0.66,0.66,0,0,1,0-.22c0.82,0.41.14-.46,1.26-0.19l-0.06.12a5.44,5.44,0,0,1,1.26-.19c0.19,0.27-.45.12-0.48,0.34,0.64,0,1.26-.51,1.84-0.24-0.27.07-.66,0.08-0.93,0.15a2.21,2.21,0,0,0,1.17.28h0l1.08,0.14-0.28-.09c0.8-.7,1.63-0.13,2.7-0.58-1,.43-0.17.25-0.25,0.55,0.27,0.08.69,0.18,0.57,0.26,0.51-.24.85,0.19,1.57-0.16,0,0.1.54,0,.43,0.25,0.66-.08-0.16-0.17-0.1-0.29,1-.33,2.39.4,3.86-0.05,1.26-.19,1.5-0.52,2.67-0.68,0.4,0.16-.32.36-0.32,0.36a3.91,3.91,0,0,0,1.72,0c-0.12.09,0,.16,0.19,0.27,0.48,0,.32-0.36,1-0.21a1.65,1.65,0,0,1-.48.39c0.57-.09,1.13-0.27,1.72-0.36,0.16,0.17-.36.26-0.56,0.37a4.45,4.45,0,0,0,1.92-.42l-0.42-.1c0.24,0,.12.23-0.05,0.28a0.62,0.62,0,0,1-.85-0.19l0.42-.06c-0.43-.57-1.69.09-2.53,0.06l0.35-.42-0.87.35c-0.18-.11-0.31-0.34.11-0.4-0.61-.21-0.54.15-1.06-0.08-0.06,0,0-.06,0-0.07l-0.59.12c0.12-.09-0.1-0.29.27-0.23-1.06-.24-1.71.31-2.11,0l0.09,0c-1.47.14-.14,0.31-1.25,0.66l-0.74-.75-0.14.31c-0.15,0-.45,0-0.4-0.16-0.57.21,0.1,0.13-.23,0.33-0.73-.28-2,0.13-2.18-0.36-0.26.23,0.7,0.18-.08,0.34-0.22-.52-0.9.09-1.57-0.15,0.21-.27.84-0.13,0.17-0.37-0.4.46-1.3-.1-1.87,0,0,0.36-1.23.15-2.17,0.27a20.87,20.87,0,0,0-2.66-.33l0-.06c-0.17.37-1.08,0.3-1.74,0.37,0-.22.14-0.31,0.5-0.4h-0.62a1.34,1.34,0,0,1-.74.22l0.16-.27a11.84,11.84,0,0,1-2.73.14c-0.06.26,0.85,0.71-.28,0.88a0.29,0.29,0,0,1,.21-0.43,1.12,1.12,0,0,1-.54.06l0.45-.23c-0.48-.1-0.25.19-0.64,0.17a3.63,3.63,0,0,1-.23-0.3,1.34,1.34,0,0,0,.49,0,2.59,2.59,0,0,1-1.14-.3c0,0.11,0,.27-0.32.29-0.83,0-.28-0.24-0.77-0.34-0.2.14-.73,0-0.74,0.29a0.47,0.47,0,0,1-.38-0.22c-0.43.13-2,0-1.52,0.35l0.11,0h-0.07c-1.4.29-2.91-.17-4.31,0v-0.1a16,16,0,0,0-2.44.28c-0.25,0-.58-0.18-0.47-0.3a3.63,3.63,0,0,1-1.62,0c0.64-.17-0.22-0.15.65-0.13a3.45,3.45,0,0,0-1.9,0c0.3-.25-0.62-0.32-1-0.24l0.58,0.18a8.44,8.44,0,0,1-1.22,0l0.21-.33c-1.69-.4-3,0.69-4.33,0-0.45.23,0.92,0.16,0.52,0.44a11.07,11.07,0,0,1-1.83-.52c-1.06-.18-1,0.49-2.11.36,0.14,0.12.28,0.44-.56,0.55-0.78,0-1-.5-0.46-0.59,0.19,0,.28,0,0.27.07,0.25,0,.58-0.09.27-0.22l-0.1.12c-0.39-.12-1.46-0.11-1.2-0.3-0.59.11-.25,0.19,0.18,0.26-1-.17-1.56,0-2.58-0.12,0.16,0.07.31,0.2,0.15,0.2-1.51-.15-0.66.23-1.68,0.28-0.58-.18.21-0.43-0.82-0.28-0.63-.12-0.13-0.31.12-0.41a5.73,5.73,0,0,1-2.28-.19l0.49-.1a3.8,3.8,0,0,1-.78.05l0.28,0.24a0.69,0.69,0,0,1-.53-0.14c-0.3.16,0.23,0.39-.36,0.61-0.39-.12-1.17.13-1.31-0.19,1.21,0.11-.13-0.32.89-0.37a2.25,2.25,0,0,1-.73,0s0-.07.12-0.08c-1.16-.28-0.53.36-1.74,0.35,0.15-.18-0.28-0.34-0.48-0.3,0.48,0,.23.3-0.21,0.43a3.37,3.37,0,0,0-1.24.09l0.46,0.06a2,2,0,0,1-1.08.21c0-.14.49-0.1,0.3-0.16-0.6.31-1.35-.32-2.18-0.11-0.39-.12,0-0.33-0.38-0.41-0.93.23-1-.24-2-0.05,0.28,0.24.33,0.18-.36,0.41l1.61-.17-1,.35c0.49,0,1-.15,1.32-0.11-0.49.19-.44,0.14-0.21,0.33-0.67-.36-1.32.21-2.09,0l0-.59c-1.16-.26-2.06.3-3.56,0.15l0.48,0.1a4,4,0,0,1-1.41.13c0-.2-0.26-0.27-0.47-0.39,0,0.15-1.1,0-1.24.38l-0.67-.26c-1.21-.11-1.38.56-2.55,0.5,0.35-.21-0.18-0.35.6-0.51a0.92,0.92,0,0,0-.75.1c-0.23-.12-1.08.27-1.44,0.08a0.84,0.84,0,0,1-.65.28,0.07,0.07,0,0,1,0-.1c0,0.1-.68.13-0.3,0.35-1.2-.62-3.35,0-4.4-0.48-0.85.07-1.87,0.13-2.64,0.14,0-.06,0-0.1.15-0.08-1.06-.18-0.65.57-1.87,0.36-0.62-.32.64-0.17,0.26-0.29-0.17-.65-1.46.09-2.28-0.29l0.2,0c-0.62-.22-1.52.25-2.54,0.2a0.07,0.07,0,0,0,0-.1,10.81,10.81,0,0,1-3,.53c0.3-.25.44-0.13,0.26-0.39-0.44,0,.13.41-0.75,0.49a2,2,0,0,1-1-.54h0.83c-0.42-.36-1.07,0-1.5,0l0.06-.16c-1.27.05-1.28,0.44-2.64,0.42l0.14,0.12c-0.74.39-.62-0.22-1.37,0.07l-0.22-.39a26.08,26.08,0,0,1-2.6.46,11.12,11.12,0,0,1,2.17-.62,5.5,5.5,0,0,0-1.91.22,1.42,1.42,0,0,1,.64-0.07,5,5,0,0,1-2.35.46c0.17-.77-2.53-0.19-3.23-0.79-1.71.28-3.4-.12-5.4-0.08,0.71,0.6-.58,0-0.46.63a1.46,1.46,0,0,1-.68,0l-1.41-.37c-0.33-.18.44-0.13,0.4-0.27-1,0-.43-0.26-1.1-0.42,0.14,0.22-.35.31-0.93,0.23l0.82,0.28c-1.42.33-1.23-.51-2.67-0.19l0.45-.19c-0.74.11-2.72,0-3.44,0.49-0.13-.07-0.3-0.24,0-0.28-1.76-.07-3.92.52-5.29,0.22l0.13-.15a1.65,1.65,0,0,1-1,.13c0-.06.13-0.15,0-0.16a3.34,3.34,0,0,1-1.31.17l0.37-.17c-1.72-.2-2.63.41-4.07,0.51,0-.44-1.35-0.58-2-0.65l0-.06a38.5,38.5,0,0,0-5.25.54c-1.15-.48-3.89-0.2-5.74-0.47,0.28,0.08,0,.34-0.37.39s-1.2.31-1.13-.1H1.16c-0.33-.4-1.22-0.29-1.91-0.3l-0.11.53c-1.82-.77-4.77.28-5.76-0.41-0.44.13-1,.13-1.42,0.26l0-.28a25.68,25.68,0,0,0-3.33,0l0.31-.2c-0.85,0-1.07.82-1.85,0.83l-0.24-.42c-1.48,0-3-.36-4.44,0a0.29,0.29,0,0,1,.31-0.2c-0.7,0-2.69-.29-2.44.29,0-.38-1.53,0-2.33.13l0.12-.28a3.07,3.07,0,0,1-1.64.55c-0.22,0-.2-0.22.1-0.15-0.74-.15-0.58.26-1.48,0.12l0.34-.18a1.48,1.48,0,0,0-1.13.28,2,2,0,0,1-1.56-.32,1.11,1.11,0,0,1-1,.29c-0.06-.1.1-0.15,0.19-0.18-1.28-.19-1.9.32-2.78,0.05a0.21,0.21,0,0,0-.15-0.17c1,0,1.83,0,1.76,0,0-.26-0.82-0.3-0.17-0.66a7,7,0,0,1-2.59.49,0.37,0.37,0,0,1-.11-0.09l0.08,0a1.22,1.22,0,0,0-.51,0,4,4,0,0,0-.66-0.08,2.64,2.64,0,0,0-1.35-.12c0,0.28-.5.24,0,0.47-0.07,0,.08,0,0.35,0l0.17,0,0,0,1,0a1.4,1.4,0,0,1-1.11.11c-0.21.18-.44,0.37-0.57,0.45-0.56-.39-1.64-0.6-1.79-0.85-1.25.16-2.94,0.1-3.73,0.63a0.54,0.54,0,0,1-.54-0.23,2.56,2.56,0,0,0,.56-0.12c-0.71.14-2.11,0.05-2.27,0.42-0.9-.17.5-0.34-0.73-0.28l0.17-.11c-2.42-.59-3.94.94-6.62,0.18a0.53,0.53,0,0,1,.32.13c-3.06-.33-6.31.31-9.33-0.22a2.2,2.2,0,0,0-1.48.31l-0.19-.3-0.9.35c-1.27.26-2.2-.74-3.81-0.26l0.21,0.2c-0.58,0-1.83.12-1.73-.11a0.36,0.36,0,0,1-.42.11l0-.16-1.42.27c-1.1-.11.17-0.63-1.43-0.66-0.6.06-1.7,0.46-1.47,0.57a0.72,0.72,0,0,1,.63.26l-0.55.08c-0.1.47-.52,0.94,0.82,1.27l0.93-.28,0.3,0.23H-70a1.1,1.1,0,0,0,1-.1,0.6,0.6,0,0,0,.39.25l0.92-.44c0.11,0.18-.41.36,0.2,0.46,0.43-.21-0.41-0.41.3-0.54,0.45,0.21.32,0.38,0.84,0.2,0.07,0.12,0,.2-0.24.25a5.1,5.1,0,0,0,1.48-.31c0.47,0.26,1.57-.07,1.53.37a3.44,3.44,0,0,1,1.25-.36c-0.78.53,1.6,0,1.4,0.6,0.58-.47,2.09-0.21,3.12-0.47a0.38,0.38,0,0,1-.26.09,4.46,4.46,0,0,1,1.12.27c0.07-.39,1-0.48,1.46-0.72,0.71,0.38-.43.46-0.21,0.82,0-.32,1.23-0.32,1-0.58a1.19,1.19,0,0,1,.75.44c0.09-.49.5-0.08,1-0.38,0.78,0.24.2,0.46,1.06,0.31C-51.47,844-52.24,844.19-52.24,844.19Zm20.47-.85h0l-0.42,0Zm1.72,0H-30.8c-0.06-.1,0-0.2.18-0.19A1,1,0,0,0-30,843.34Zm-3.64-1.95a0.37,0.37,0,0,1,.4.07l-0.48,0,0,0A0.35,0.35,0,0,1-33.69,841.39Z" transform="translate(71.37 -840.98)"/><path class="cls-1" d="M-34.18,841.76l-0.11,0,0.16,0.06,0.1-.09h-0.15Z" transform="translate(71.37 -840.98)"/><path class="cls-1" d="M121.74,842.18h0l0.08,0Z" transform="translate(71.37 -840.98)"/><polygon class="cls-1" points="65.07 2.9 65.06 2.83 64.92 2.89 65.07 2.9"/><path class="cls-1" d="M131.22,843.14a0.23,0.23,0,0,0,.12.07A0.3,0.3,0,0,0,131.22,843.14Z" transform="translate(71.37 -840.98)"/><path class="cls-1" d="M135.31,843.2l0.58,0.1A5,5,0,0,0,135.31,843.2Z" transform="translate(71.37 -840.98)"/><path class="cls-1" d="M138.46,843.34a0.31,0.31,0,0,0,.06-0.12h0Z" transform="translate(71.37 -840.98)"/><path class="cls-1" d="M88.43,843.67H88.31A0.91,0.91,0,1,0,88.43,843.67Z" transform="translate(71.37 -840.98)"/><path class="cls-1" d="M103.32,843a4,4,0,0,1-.48.13C103.1,843.17,103.31,843.18,103.32,843Z" transform="translate(71.37 -840.98)"/><path class="cls-1" d="M71.81,844h0Z" transform="translate(71.37 -840.98)"/><path class="cls-1" d="M102.15,843.15a1.69,1.69,0,0,0,.69,0A2.61,2.61,0,0,0,102.15,843.15Z" transform="translate(71.37 -840.98)"/><path class="cls-1" d="M152.09,843.47h0.15a0.05,0.05,0,0,1,0,0Z" transform="translate(71.37 -840.98)"/><path class="cls-1" d="M152.26,843.44l0.17,0A0.24,0.24,0,0,0,152.26,843.44Z" transform="translate(71.37 -840.98)"/><path class="cls-1" d="M152.79,843.33l-0.35.07A0.51,0.51,0,0,0,152.79,843.33Z" transform="translate(71.37 -840.98)"/><path class="cls-1" d="M147.93,843.34l0,0.1A0.14,0.14,0,0,0,147.93,843.34Z" transform="translate(71.37 -840.98)"/><path class="cls-1" d="M146.66,843.37a4.63,4.63,0,0,0,1.18.15l0-.08C147.68,843.6,146.95,843.2,146.66,843.37Z" transform="translate(71.37 -840.98)"/><path class="cls-1" d="M141.38,842.11l1.06,0.08c-0.19-.11-0.43-0.25.05-0.28C141.16,841.59,142.77,842.15,141.38,842.11Z" transform="translate(71.37 -840.98)"/><path class="cls-1" d="M138.09,842c0.57-.05,0-0.16,0-0.22C137.75,841.83,137.67,841.86,138.09,842Z" transform="translate(71.37 -840.98)"/><path class="cls-1" d="M114.32,842l0.06-.26C113.94,841.73,114.38,841.8,114.32,842Z" transform="translate(71.37 -840.98)"/><polygon class="cls-1" points="181.15 2.3 181.57 2.46 181.78 2.22 181.15 2.3"/><polygon class="cls-1" points="178.46 0.48 178.66 0.44 177.92 0.53 178.46 0.48"/><path class="cls-1" d="M67.18,841.54l0.13,0.31C67.61,841.8,67.67,841.45,67.18,841.54Z" transform="translate(71.37 -840.98)"/><path class="cls-1" d="M50,841.86a1,1,0,0,0-1-.1A7.47,7.47,0,0,0,50,841.86Z" transform="translate(71.37 -840.98)"/><polygon class="cls-1" points="69.64 0.37 69.98 0.27 69.33 0.36 69.64 0.37"/></svg>